<?xml version="1.0" encoding="UTF-8"?><svg id="Layer_2" xmlns="http://www.w3.org/2000/svg" viewBox="0 0 669.8 84.35"><defs><style>.cls-1{fill:#fff;}.cls-2{fill:#1ecad3;}.cls-3{fill:#574545;}</style></defs><g id="Layer_1-2"><g><g><path class="cls-3" d="M438.41,26.3c-13.63,0-15.66,14.13-15.66,22.55,0,16.09,4.81,23.26,15.6,23.26,3.46,0,7.48-1.36,7.48-3.1v-6.64c0-.2-.08-.36-.22-.46-.15-.1-.36-.11-.58-.03-2.1,.87-3.5,1.44-5.4,1.44-3.56,0-7.2-1.67-7.2-14.1,0-9.93,2.19-14.16,7.33-14.16,1.64,0,2.92,.49,4.71,1.16l.56,.21c.2,.07,.46,.14,.62,.03,.15-.1,.18-.33,.18-.44v-6.63c0-1.89-4.39-3.1-7.42-3.1"/><path class="cls-3" d="M462.11,48.33h-2.12v-12.48h2.18c3.28,0,3.73,3.06,3.73,6.04,0,4.15-1.35,6.43-3.79,6.43m8.39,5.52l.16-.14c3.05-2.63,4.66-6.76,4.66-11.94,0-9.78-4.3-14.59-13.15-14.69l-9.6-.06c-1.25,0-1.94,.69-1.94,1.94l-.26,40.45c0,1.25,.69,1.94,1.94,1.94h5.73c1.25,0,1.94-.69,1.94-1.94v-12.55h2.41l4.06,12.91c.35,1.1,1.01,1.59,2.15,1.59h5.93c.66,0,1.14-.19,1.39-.54,.26-.37,.28-.9,.05-1.56l-5.48-15.4Z"/><path class="cls-3" d="M500.96,64.25c0-1.04-.58-1.62-1.62-1.62h-9.78v-9.06h9.2c1.05,0,1.62-.58,1.62-1.62v-5.47c0-1.04-.58-1.62-1.62-1.62h-9.2v-9h10.3c1.05,0,1.62-.58,1.62-1.62v-5.54c0-1.05-.58-1.62-1.62-1.62h-17.91c-1.25,0-1.94,.69-1.94,1.94l-.13,40.39c0,1.25,.69,1.94,1.94,1.94l17.52,.06c1.04,0,1.62-.58,1.62-1.62v-5.54Z"/><path class="cls-3" d="M516.5,53.42l2.32-14.55h.06l2.33,14.55h-4.71Zm9.07-24.6c-.23-1.14-.99-1.74-2.2-1.74h-9.08c-1.23,0-1.91,.55-2.14,1.74l-7.41,40.77c-.11,.57-.05,1.03,.2,1.33,.23,.29,.63,.43,1.17,.43h6.7c1.1,0,1.71-.49,1.82-1.46l.87-8.01h6.81l1,8c.14,1.28,1.2,1.46,1.82,1.46l6.7-.06c.55,0,.94-.14,1.17-.43,.24-.3,.31-.75,.2-1.32l-7.6-40.71Z"/><path class="cls-3" d="M569.94,29.02c0-1.25-.69-1.94-1.94-1.94h-3.61c-1.16,0-1.83,.45-2.29,1.55l-8.39,19.06h-.54l-.08-.19-8.31-18.87c-.47-1.1-1.13-1.55-2.29-1.55h-3.74c-1.25,0-1.94,.69-1.94,1.94v40.38c0,1.25,.69,1.94,1.94,1.94h5.28c1.25,0,1.94-.69,1.94-1.94v-18.49l5.37,12.18c.2,.51,.65,.78,1.26,.78h1.48c.35,0,.99-.1,1.25-.77l5.43-12.17v18.47c0,1.25,.69,1.94,1.94,1.94h5.28c1.25,0,1.94-.69,1.94-1.94V29.02Z"/><path class="cls-3" d="M596.29,64.25c0-1.04-.58-1.62-1.62-1.62h-9.78v-9.06h9.2c1.05,0,1.62-.58,1.62-1.62v-5.47c0-1.04-.57-1.62-1.62-1.62h-9.2v-9h10.3c1.04,0,1.62-.58,1.62-1.62v-5.54c0-1.05-.58-1.62-1.62-1.62h-17.91c-1.25,0-1.94,.69-1.94,1.94l-.13,40.39c0,1.25,.69,1.94,1.94,1.94l17.52,.06c1.04,0,1.62-.58,1.62-1.62v-5.54Z"/><path class="cls-3" d="M613.41,48.33h-2.12v-12.48h2.18c3.28,0,3.73,3.06,3.73,6.04,0,4.15-1.35,6.43-3.79,6.43m8.39,5.52l.16-.14c3.05-2.63,4.66-6.76,4.66-11.94,0-9.78-4.3-14.59-13.15-14.69l-9.6-.06c-1.25,0-1.94,.69-1.94,1.94l-.26,40.45c0,1.25,.69,1.94,1.94,1.94h5.73c1.25,0,1.94-.69,1.94-1.94v-12.55h2.41l4.06,12.91c.35,1.1,1.01,1.59,2.15,1.59h5.93c.66,0,1.14-.19,1.39-.54,.26-.37,.28-.9,.05-1.56l-5.48-15.4Z"/><path class="cls-3" d="M645.9,58.11l8.44-29.63c.09-.32,.15-.77-.1-1.09-.24-.32-.69-.38-1.02-.38h-6.76c-.83,0-1.28,.37-1.5,1.25l-1.8,8.11-1.79,9.2h-.64l-1.79-9.2-1.74-8.05c-.15-.82-.68-1.24-1.56-1.24h-6.76c-.33,0-.78,.07-1.02,.38-.19,.25-.22,.63-.09,1.09l8.45,30.29v10.56c0,1.25,.69,1.94,1.94,1.94h5.8c1.25,0,1.94-.69,1.94-1.94v-11.29Z"/></g><g><path class="cls-2" d="M295.51,10.3h8.49c2.07,0,3.3,1.15,3.3,3.11V59.18h14.33c1.79,0,2.83,.98,2.83,2.66v7.63c0,1.69-1.04,2.66-2.83,2.66h-26.11c-2.07,0-3.3-1.15-3.3-3.1V13.41c0-1.95,1.23-3.11,3.3-3.11"/><path class="cls-2" d="M367.44,72.04l-9.8,.09c-1.7,0-2.92-.8-3.11-2.39l-1.41-10.64h-9.15l-1.23,10.64c-.19,1.69-1.41,2.39-3.11,2.39h-9.8c-1.98,0-2.83-1.15-2.45-2.93l10.84-56.15c.38-1.86,1.6-2.75,3.58-2.75h13.29c1.98,0,3.3,.97,3.68,2.75l11.12,56.06c.38,1.77-.47,2.93-2.45,2.93m-19.23-44l-2.64,18.54h5.85l-2.83-18.54h-.38Z"/><path class="cls-2" d="M403.45,39.48c5.28-2.22,7.73-7.01,7.73-12.86,0-10.38-7.73-16.32-19.14-16.32h-14.42c-2.07,0-3.3,1.15-3.3,3.11v55.62c0,1.95,1.23,3.1,3.3,3.1h13.86c13.39,0,21.12-6.92,21.12-17.92,0-7.45-3.58-12.51-9.15-14.73"/><path class="cls-1" d="M397.21,43.24l-5.56,16.75c-.41,1.23-1.08,1.23-1.49,0l-5.56-16.75c-.41-1.23,.31-2.29,1.61-2.29h9.4c1.29,0,2.02,1.06,1.61,2.29"/><path class="cls-1" d="M399.46,30.38c.16-.66,.25-1.35,.25-2.06,0-4.86-3.94-8.8-8.8-8.8s-8.8,3.94-8.8,8.8c0,.71,.09,1.4,.25,2.06-1.07,.2-1.89,1.13-1.89,2.25,0,1.27,1.04,2.3,2.32,2.3h16.24c1.28,0,2.32-1.03,2.32-2.3,0-1.12-.82-2.05-1.89-2.25"/><path class="cls-2" d="M252.99,68.49v-9.76c0-.71,.47-1.42,1.79-.97,.85,.27,5.47,2.39,10.75,2.39,5.66,0,7.17-2.48,7.07-5.06-.19-3.9-3.87-6.03-10.56-12.69-4.34-4.26-8.49-8.34-8.49-16.14,0-9.14,5.56-17.03,20.08-17.03,3.49,0,11.41,1.51,11.41,4.7v10.02c0,.53-.57,1.51-2.07,.98-1.51-.53-3.96-2.66-8.67-2.66-4.43,0-6.32,1.95-6.32,4.79s2.54,4.61,8.67,9.93c8.01,6.92,11.03,11.35,11.03,18.36,0,8.6-4.9,17.83-20.36,17.83-6.41,0-14.33-1.51-14.33-4.7"/><path class="cls-3" d="M92.36,5.16c-.29-1.27-.83-2.4-1.6-3.37-.83-1.04-2.04-1.63-3.59-1.76-.23-.03-.46-.04-.69-.04-.79,0-1.54,.15-2.24,.45-.84,.36-1.65,.84-2.4,1.43-.74,.58-1.44,1.25-2.08,1.99-.62,.71-1.19,1.36-1.73,1.98-1.68,2.17-3.87,5.05-6.49,8.56-2.7,3.62-5.5,7.41-8.31,11.28-2.88,3.96-5.85,8.06-8.81,12.17-2.95,4.1-5.63,7.83-8.03,11.2-2.18,3.05-4.02,5.7-5.49,7.87,.34-1.03,.71-2.09,1.09-3.18,1.08-3.01,2.19-6.08,3.34-9.22l3.44-9.4c1.14-3.12,2.14-6.12,2.97-8.91,.83-2.8,1.42-5.37,1.76-7.64,.35-2.33,.32-4.26-.09-5.73-.35-1.09-1.01-1.8-1.98-2.12-.06-.02-.4-.11-.98-.11-1.24,0-3.24,.41-5.76,2.37-3.13,2.44-6.2,5.51-7.37,6.71-3.01,3.09-5.89,6.41-8.55,9.87-.78,1.06-1.49,2.07-2.13,3,2.69-8.6,3.46-10.91,3.62-11.3,.83-1.98,1.53-4.06,2.09-6.2,.56-2.17,.81-4.27,.72-6.23-.09-2.12-.94-3.75-2.51-4.85-1.05-.73-2.17-1.1-3.32-1.1-.35,0-.7,.03-1.05,.1-1.42,.27-2.82,.8-4.15,1.58-1.29,.76-2.55,1.66-3.75,2.68-.16,.13-.93,.79-.93,.79-2.22,1.88-6.84,5.8-8.76,7.75-1.61,1.64-5.6,5.74-7.68,8.39-1.04,1.33-1.18,2.88-.31,3.6,.3,.26,.69,.39,1.14,.39,1.51,0,3.66-1.45,6.41-4.31,2.56-2.79,4.96-5.21,7.13-7.19l4.64-4.22c1.83-1.66,3.24-2.61,4.21-2.81,.22-.05,.42-.07,.6-.07,.6,0,.85,.26,1,.49,.38,.59,.54,1.53,.46,2.8-.08,1.38-.37,2.87-.85,4.43-1.48,4.73-3.21,9.49-5.14,14.13l-5.86,14.07c-1.95,4.69-3.82,9.47-5.55,14.2-1.74,4.76-3.16,9.66-4.21,14.53-.09,.24-.13,.49-.14,.74-.19,.88-.02,1.61,.5,2.17,.26,.27,.44,.47,.92,.47h0s.09,0,.17,.02c.18,.03,.36,.04,.55,.04,.44,0,.9-.08,1.36-.25,.71-.26,1.25-.75,1.6-1.45,1.16-2.36,2.24-4.81,3.28-7.19,1.27-2.9,2.59-5.89,4.08-8.78,2.7-5.23,5.65-10.42,8.77-15.42,3.25-5.21,6.88-9.91,10.31-14.22,3.63-4.55,7.26-8.83,11.81-11.32-.43,1.74-1.02,3.61-1.73,5.57-.94,2.55-1.96,5.28-3.06,8.12-1.1,2.85-2.27,5.81-3.46,8.8-1.21,3.03-2.34,6.08-3.35,9.07-1.03,3.04-1.9,6.05-2.6,8.95-.71,2.94-1.12,5.8-1.23,8.52-.03,.64,.14,1.23,.5,1.73,.33,.47,.75,.84,1.25,1.09,.42,.21,.87,.32,1.33,.32,.1,0,.21,0,.31-.02,.61-.06,1.15-.34,1.6-.83,3.81-4.29,7.21-8.41,10.11-12.26,2.87-3.82,5.64-7.66,8.24-11.44,2.66-3.87,5.32-7.78,7.91-11.62,2.66-3.95,5.72-8.28,9.1-12.87,.68-.93,1.45-2,2.28-3.18,.83-1.19,1.74-2.44,2.69-3.73l2.75-3.7c.85-1.15,1.67-2.13,2.4-2.92,.26-.24,.58-.54,.94-.9,.3-.3,.63-.56,.99-.75,.33-.18,.65-.29,1.03-.33,.14,0,.25,.05,.33,.13,.17,.22,.28,.53,.35,.96,.27,1.08,.2,3.54-1.66,9.17-.73,2.21-1.66,4.81-2.76,7.75-1.11,2.97-2.35,6.22-3.68,9.66-1.39,3.6-2.73,7.16-4,10.58-1.3,3.52-2.59,7.06-3.82,10.54-1.21,3.43-2.27,6.67-3.13,9.63-.87,2.95-1.49,5.56-1.85,7.76-.39,2.34-.36,4.02,.08,5.13,.66,1.79,1.84,3.36,3.51,4.66,1.35,1.06,2.88,1.62,4.55,1.69,.11,0,.21,0,.32,0,.33,0,.67-.02,1.03-.06,.85-.14,1.47-.55,1.85-1.22,.34-.61,.47-1.28,.38-1.98-.09-.7-.38-1.32-.87-1.84-.5-.52-1.13-.79-1.89-.79-.07,0-.14,0-.23,0-.06,0-.11,.01-.17,.01-.18,0-.32-.04-.43-.13-.27-.21-.45-.74-.52-1.48-.15-1.55,.05-3.71,.58-6.42,.53-2.75,1.36-5.96,2.45-9.55,1.09-3.59,2.32-7.4,3.65-11.34,1.32-3.92,2.71-7.9,4.14-11.83,1.42-3.94,2.74-7.63,3.92-10.99,1.16-3.3,2.19-6.27,3.05-8.83,.28-.83,2.69-8.24,1.43-12.74"/><path class="cls-3" d="M216.72,59.4c-.24,.22-.48,.45-.73,.67,0-.08,0-.21,0-.36,0-.12,0-.26,0-.37,.38-9.85,6.5-14.77,7.5-15.14,.66-.24,1.05-.06,1.23,.1,.53,.47,.55,1.57,.18,3.06-1.44,5.72-7.14,11.07-8.19,12.03m-87.88-14.18c-.9-2.16-.1-5.17,.81-6.72,.43-.73,.81-.99,.99-.99v0c.48,0,.65,.21,.73,.37,.68,1.31-1.45,5.63-2.54,7.34m35.87,4.51c.72-2.68,1.43-5.36,2.21-8.03,2.26-7.72,5.71-14.91,10.06-21.69,.51-.79,1.82-2.49,2.3-2.63,.72-.2,1.14,.37,.99,1.27-.23,1.99-1.37,5.19-2.16,7.36-2.22,6.15-4.37,10.71-7.73,15.84-1.66,2.54-3.22,5.14-4.83,7.71-.09,.14-.91,1.26-1.08,1.41-.02-.23,.18-1.03,.24-1.24m34.45-9.17c.18-.62,.38-1.23,.61-1.83,2.16-5.73,4.88-12.18,8.87-16.98,.67-.8,2.13-2.51,2.81-2.83,.79-.37,1.29-.15,1.21,.89-.68,6.66-9.27,17.38-12,20.15-.28,.32-.58,.62-.91,.91-.16,.14-.42,.38-.59,.3-.22-.15-.07-.42-.01-.61m-41.94,29.43h0c1.07-.9,2.08-1.93,3.02-3.08,2.02,4.29,7.41,5.29,11.12,4.29,6.13-1.66,11.15-7.91,10.64-15.44-.01-.19,.02-.38,.03-.58,.06-.79,.18-.88,.91-.69,.34,.09,.68,.19,1.02,.28,2.24,.58,4.42,.55,6.64-.16,.86-.27,.64,2.13,.6,2.82,.05,3.04,.26,5.86,1.09,8.58,.76,2.53,2.32,4.3,4.71,5.37,1.86,.83,3.77,.78,5.76,.48,2.51-.38,3.39-.68,5.09-1.47,1.12-.45,2.29-1.03,3.76-1.83,.67-.37,.9-.32,1.44,.06,3.8,2.7,11.09,2.55,13.65,1.94,4.27-1.01,15.91-5.56,23.13-19.59l.02-.03c.31-.61,.61-1.23,.91-1.88,1.13-3.06-.41-4.47-1.34-4.82-1.07-.41-2.27,.05-3,1.8h0c-2.51,5.67-7.28,13.59-15.42,17.59-3.12,1.53-11.43,3.18-12.94,1.01,.09-.09,.24-.22,.49-.43l1.12-.95c1.61-1.36,6.87-5.53,10.12-12.38,.75-1.58,1.51-3.99,1.37-6.17-.2-3.04-1.55-5.1-4.6-5.76-4.09-.88-8.44,2.04-11.55,5.73-4.32,5.13-5.63,11.6-4.07,18.38,.01,.13-4.89,4.16-9.47,3.41-2.97-.48-3.79-2.74-4.21-4.8-.71-3.48-.53-7.44,.14-10.3,.12-.5,.53-1.03,.93-1.4,.92-.84,1.96-1.56,2.89-2.39,4.8-4.28,8.55-9.53,12.19-15.7,1.88-3.18,3.61-6.92,4.35-10.07,1.34-6.71-.15-8.27-1.8-9.06-2.34-1.15-4.75-.23-7.01,1.41-.85,.61-1.65,1.33-2.38,2.09-4.91,5.1-8.15,11.2-10.42,17.81-1.18,3.41-2.06,7.92-3.02,11.39-.22,.81-.39,1.84-1.15,2.22-1.39,.7-1.95,.91-3.15,1.29-2.45,.78-4.74,.03-6.52-1.81-.45-.46-.91-.93-1.42-1.32-1.18-.92-2.63-.99-3.73-.25-1.12,.76-1.53,2.09-1.13,3.62,.16,.63,.34,1.27,.44,1.91,.59,3.84,.67,7.22-1.46,10.45-1.03,1.56-4.05,4.31-6.81,3.85-2.79-.47-4.38-3.72-3.44-5.04,12.56-17.57,20.04-35.3,20.59-41.26,.14-1.49,.32-2.97-.07-4.43-.81-2.99-3.7-4.51-6.63-3.41-.87,.33-1.69,.82-2.47,1.34-1.91,1.29-3.22,3.13-4.46,5.03-4.56,6.99-7.9,14.5-10.24,22.49-1.87,6.39-3.16,13.61-3.24,20.23,0,.32-.4,1.03-1.13,1.93l-.27,.33c-.73,.87-1.66,1.76-2.69,2.59-2.73,2.35-4.99,3.18-6.71,3.18-.52,0-.99-.11-1.42-.32-1.67-.82-2.27-3.86-1.41-7.22,.92-3.34,2.8-7.87,4.04-10.86,.69-1.66,1.19-2.86,1.27-3.25,.4-1.85-.29-3.49-1.73-4.09-.62-.26-1.18-.38-1.69-.38-.08,0-.17,0-.25,.01-.74,.05-1.51,.32-2.25,.57-.32,.11-.65,.22-.97,.31-1.25,.36-2.53,.79-3.82,1.21l-.22,.07c-.91,.3-1.81,.6-2.72,.88-.96,.29-1.79,.52-2.55,.71,1.75-3.28,2.65-6.03,2.67-8.18,.02-2.21-1.04-4.8-3.1-5.47-.7-.23-1.38-.35-2.02-.35-1.34,0-2.58,.5-3.69,1.5-4.92,4.42-4.63,12.93-1.85,16.28l-.09,.23-.08,.14c-.29,.5-.64,1.19-1.05,1.98-2.3,4.45-6.57,12.74-12.27,12.74-.41,0-1.01-.23-1.45-.86-.44-.62-1.02-2.09,0-4.96,.41-1.15,.83-2.34,1.26-3.47l.47-1.22c.13-.35,.54-1.42,.02-2.4-.31-.58-.97-1.01-1.91-1.23-.17-.04-.33-.06-.5-.06-1.08,0-2.07,.84-2.93,2.52-2.09,4.35-8.85,12.68-13.17,12.69-.42,0-.82-.08-1.18-.24-.81-.36-1.63-1.68-1.63-3.51,0-6.6,6.84-15.48,12.23-17.86,.7-.31,1.52-.48,2.32-.48,.88,0,1.68,.21,2.2,.57,.68,.48,1,1.27,.94,2.36-.02,.45,.05,.84,.1,1.1,.27,1.27,1.16,2.07,2.33,2.07,.1,0,.2,0,.29-.02,1.33-.1,2.36-1.07,2.61-2.47,.28-1.53,.35-3.78-.94-5.85-1.59-2.56-4.3-4.03-7.43-4.03-.18,0-.36,0-.54,.01-.03,0-.07,0-.1,0-12.27,1.29-18.28,15.86-18.53,16.48-1.22,3.03-2.81,9.26-1,13.38,.75,1.7,2,2.89,3.72,3.54,1.02,.39,2.1,.58,3.21,.58,4.59,0,8.93-3.33,10.93-5.77,.86,1.86,3.04,3.69,5.07,4.2,1,.25,2,.38,2.98,.38,9.47,0,15.4-11.48,18.26-17,.42-.82,.76-1.46,1.02-1.91,.02-.04,.04-.06,.05-.09,.2,.01,.4,.02,.62,.02,3.21,0,8.47-1.37,11.84-3.05-.63,1.9-1.33,3.67-1.95,5.25-.61,1.54-1.19,3-1.6,4.32-2.36,6.35-1.13,10.16,.32,12.25,1.69,2.43,4.51,3.45,7.96,3.45,2.98,0,6.06-1.2,8.9-3.48l.24-.2Z"/></g><path class="cls-3" d="M669.8,32.58c0,4.2-1.96,6.68-5.61,6.68s-5.61-2.48-5.61-6.68,2.02-6.68,5.61-6.68,5.61,2.48,5.61,6.68Zm-1.87,0c0-3.13-1.26-4.98-3.74-4.98s-3.74,1.85-3.74,4.98,1.26,4.98,3.74,4.98,3.74-1.85,3.74-4.98Zm-1.33,2.63c.09,.2-.02,.35-.28,.35h-1.15c-.22,0-.33-.09-.39-.26l-.65-1.76h-.19v1.7c0,.22-.15,.33-.37,.33h-1.15c-.22,0-.35-.11-.35-.33l.02-5.66c0-.22,.15-.33,.37-.33h1.85c.85,0,2.2,.26,2.2,2.13,0,.87-.28,1.44-.74,1.76l.85,2.07Zm-2.68-2.96h.17c.46,0,.57-.43,.57-.87,0-.54-.13-.81-.54-.81h-.19v1.68Z"/></g></g></svg>